<?xml version="1.0"?>
<svg xmlns="http://www.w3.org/2000/svg" viewBox="0 0 64 64" width="512" height="512"><g id="Engineer"><path d="M27,26H5a2.006,2.006,0,0,0-2,2V42a2.006,2.006,0,0,0,2,2H27a2.006,2.006,0,0,0,2-2V28A2.006,2.006,0,0,0,27,26Z" style="fill:#78b9eb"/><rect x="6" y="55" width="52" height="6" style="fill:#acabb1"/><polygon points="61 51 61 55 58 55 6 55 3 55 3 51 9 51 23 51 33 51 38 51 46 51 54 51 59 51 61 51" style="fill:#787680"/><polygon points="23 48 23 51 9 51 9 48 13 48 19 48 23 48" style="fill:#898890"/><polygon points="19 44 19 48 13 48 13 44 13 36 19 36 19 44" style="fill:#acabb1"/><polygon points="51 35 52 42 46 41 51 35" style="fill:#1e81ce"/><polygon points="41 35 46 41 40 42 41 35" style="fill:#1e81ce"/><path d="M52,42l-1-7a8,8,0,0,1,8,8v8H46V41Z" style="fill:#5aaae7"/><path d="M40,42l6-1V51H33V43a8,8,0,0,1,8-8Z" style="fill:#3d9ae2"/><polygon points="51 35 46 41 41 35 51 35" style="fill:#ffdaaa"/><path d="M52,23v4a6,6,0,0,1-12,0V23Z" style="fill:#ffdaaa"/><path d="M44,13.09V19H39A5.99,5.99,0,0,1,44,13.09Z" style="fill:#ffb655"/><path d="M53,19H48V13.09a5.832,5.832,0,0,1,3.24,1.67A5.944,5.944,0,0,1,53,19Z" style="fill:#ffb655"/><path d="M53,19a2.015,2.015,0,0,1,2,2,2.006,2.006,0,0,1-2,2H39a2.015,2.015,0,0,1-2-2,2.006,2.006,0,0,1,2-2H53Z" style="fill:#ff9811"/><path d="M48,13.09V19H44V12a1,1,0,0,1,1-1h2a1,1,0,0,1,1,1Z" style="fill:#ffa733"/><rect x="6" y="55" width="52" height="2" style="fill:#898890"/><rect x="53" y="43" width="2" height="8" style="fill:#3d9ae2"/><rect x="37" y="43" width="2" height="8" style="fill:#1e81ce"/></g></svg>
