<?xml version="1.0" encoding="iso-8859-1"?>
<!-- Generator: Adobe Illustrator 19.0.0, SVG Export Plug-In . SVG Version: 6.00 Build 0)  -->
<svg version="1.1" id="Capa_1" xmlns="http://www.w3.org/2000/svg" xmlns:xlink="http://www.w3.org/1999/xlink" x="0px" y="0px"
	 viewBox="0 0 512 512" style="enable-background:new 0 0 512 512;" xml:space="preserve">
<g>
	<path style="fill:#EBEBEB;" d="M119.247,274.013H58.355C26.177,274.013,0,247.836,0,215.658s26.177-58.355,58.355-58.355h60.892
		v15.223H58.355c-23.783,0-43.132,19.348-43.132,43.132s19.348,43.132,43.132,43.132h60.892V274.013z"/>
	<path style="fill:#EBEBEB;" d="M256.259,172.526h-152.23v-15.223h152.23c4.197,0,7.612-3.414,7.612-7.611h15.223
		C279.093,162.283,268.85,172.526,256.259,172.526z"/>
</g>
<rect x="210.585" y="134.47" style="fill:#FFCB63;" width="30.446" height="45.669"/>
<rect x="210.585" y="53.281" style="fill:#FFE2A8;" width="30.446" height="81.189"/>
<path style="fill:#EBEBEB;" d="M271.482,157.303c-4.205,0-7.612-3.408-7.612-7.611c0-4.197-3.414-7.611-7.612-7.611H210.59
	c-4.205,0-7.611-3.408-7.611-7.611c0-4.204,3.407-7.611,7.611-7.611h45.669c12.59,0,22.835,10.243,22.835,22.834
	C279.093,153.896,275.686,157.303,271.482,157.303z"/>
<polygon style="fill:#B3B3B3;" points="119.247,357.74 164.916,357.74 164.916,281.625 88.801,281.625 "/>
<rect x="73.578" y="281.626" style="fill:#CCCCCC;" width="45.669" height="76.115"/>
<path style="fill:#353535;" d="M104.024,220.733l15.223,91.338c25.222,0,45.669-20.447,45.669-45.669L104.024,220.733z"/>
<path style="fill:#4F4F4F;" d="M73.578,266.402c0,25.222,20.447,45.669,45.669,45.669v-91.338L73.578,266.402z"/>
<polygon style="fill:#FFA754;" points="142.081,144.618 119.247,144.607 88.801,205.505 119.247,266.39 164.916,266.402 "/>
<polygon style="fill:#FFCB63;" points="119.247,144.607 96.412,144.618 73.578,266.402 119.247,266.389 "/>
<g>
	<path style="fill:#353535;" d="M111.635,137.006v106.549c0,4.204,3.408,7.611,7.611,7.611s7.611-3.408,7.611-7.611V137.006H111.635
		z"/>
	<path style="fill:#353535;" d="M182.546,474.33l-25.242-8.414V357.74l-15.223,15.223v98.44c0,3.276,2.096,6.185,5.204,7.221
		l30.446,10.149c3.991,1.329,8.3-0.825,9.628-4.815C188.689,479.97,186.534,475.66,182.546,474.33z"/>
</g>
<path style="fill:#4F4F4F;" d="M81.189,357.74v108.179l-25.242,8.413c-3.988,1.329-6.143,5.64-4.814,9.628
	c1.329,3.988,5.638,6.143,9.628,4.815l30.446-10.149c3.108-1.036,5.204-3.945,5.204-7.221v-98.442L81.189,357.74z"/>
<g>
	<path style="fill:#EBEBEB;" d="M78.658,144.618c-11.21,0-20.297,9.087-20.297,20.297l-0.006,208.048h38.057V144.618H78.658z"/>
	<path style="fill:#EBEBEB;" d="M159.841,144.618h-17.76v228.345h38.057V164.915C180.139,153.706,171.052,144.618,159.841,144.618z"
		/>
</g>
<path style="fill:#60312C;" d="M119.247,22.834v102.501l45.669-46.684V68.503C164.916,43.28,144.469,22.834,119.247,22.834z"/>
<path style="fill:#85453D;" d="M119.247,22.834c-25.222,0-45.669,20.447-45.669,45.669v10.149l60.892,46.684V68.503
	C134.47,43.28,127.654,22.834,119.247,22.834z"/>
<path style="fill:#FFE2A8;" d="M138.234,78.651c-1.069-1.596-2.337-3.047-3.764-4.324l-15.223,70.291
	c25.222,0,45.669-20.447,45.669-45.669V78.651C164.916,78.651,138.234,78.651,138.234,78.651z"/>
<path style="fill:#FFF0D3;" d="M134.47,98.949V74.327c-4.04-3.619-9.372-5.824-15.223-5.824c-7.917,0-14.89,4.03-18.987,10.149
	H73.578v20.297c0,25.222,20.447,45.669,45.669,45.669C127.654,144.618,134.47,124.171,134.47,98.949z"/>
<path style="fill:#85453D;" d="M481.554,324.249v157.304c0,4.204,3.407,7.612,7.612,7.612s7.611-3.408,7.611-7.612V344.546
	L481.554,324.249z"/>
<path style="fill:#A45E43;" d="M268.432,344.546v137.007c0,4.204,3.407,7.612,7.611,7.612s7.612-3.408,7.612-7.612V324.249
	L268.432,344.546z"/>
<path style="fill:#4F4F4F;" d="M443.497,428.273c-12.59,0-22.835-10.243-22.835-22.835v-93.368h15.223v93.368
	c0,4.197,3.414,7.612,7.612,7.612s7.611-3.414,7.611-7.612v-93.368h15.223v93.368C466.331,418.03,456.087,428.273,443.497,428.273z"
	/>
<rect x="367.382" y="185.213" style="fill:#999999;" width="45.669" height="86.264"/>
<g>
	<rect x="352.159" y="185.213" style="fill:#B3B3B3;" width="30.446" height="86.264"/>
	<polygon style="fill:#B3B3B3;" points="432.835,235.956 402.389,296.848 463.281,296.848 463.281,235.956 	"/>
</g>
<rect x="301.923" y="235.957" style="fill:#CCCCCC;" width="130.908" height="60.892"/>
<polygon style="fill:#353535;" points="432.843,205.513 387.171,144.622 432.843,83.729 463.292,83.729 463.292,205.513 "/>
<rect x="301.923" y="83.727" style="fill:#4F4F4F;" width="130.918" height="121.784"/>
<polygon style="fill:#A45E43;" points="397.32,298.877 466.331,344.546 496.777,344.546 496.777,298.877 "/>
<rect x="268.432" y="298.878" style="fill:#C27749;" width="197.899" height="45.669"/>
<polygon style="fill:#E18F4E;" points="481.554,281.625 466.331,296.848 481.554,312.071 512,312.071 512,281.625 "/>
<rect x="253.209" y="281.626" style="fill:#FFA754;" width="228.345" height="30.446"/>
<g>
</g>
<g>
</g>
<g>
</g>
<g>
</g>
<g>
</g>
<g>
</g>
<g>
</g>
<g>
</g>
<g>
</g>
<g>
</g>
<g>
</g>
<g>
</g>
<g>
</g>
<g>
</g>
<g>
</g>
</svg>
